<?xml version="1.0" encoding="utf-8"?>
<!-- Generator: Adobe Illustrator 15.1.0, SVG Export Plug-In . SVG Version: 6.00 Build 0)  -->
<!DOCTYPE svg PUBLIC "-//W3C//DTD SVG 1.1//EN" "http://www.w3.org/Graphics/SVG/1.1/DTD/svg11.dtd">
<svg version="1.1" id="Layer_1" xmlns="http://www.w3.org/2000/svg" xmlns:xlink="http://www.w3.org/1999/xlink" x="0px" y="0px"
	 width="388.5px" height="255.5px" viewBox="0 0 388.5 255.5" enable-background="new 0 0 388.5 255.5" xml:space="preserve">
<g>
	<g>
		<g>
			<path fill="#757577" d="M116.793,62.957c19.998,2.715,26.978,18.494-8.846,52.484c-0.663,9.49-0.38,18.262,0.359,26.909
				c13.263,2.818,29.93,4.676,40.341,11.803c14.74,10.093-2.281,27.537-10.419,33.677c-11.061,8.337-25.66,15.131-34.362,16.153
				c-4.853,0.572-9.563-0.465-12.043-4.422c-3.159-5.047-3.045-14.619,4.547-16.724c7.589-2.106,7.747,11.153-1.968,14.261
				c0.509,2.601,3.069,3.6,5.38,3.904c11.849,1.544,33.278-14.35,38.839-19.936c4.424-4.44,12.264-11.68,6.014-18.969
				c-6.264-7.287-21.795-9.447-35.662-14.179c0.045,14.828,7.025,29.327,7.375,39.511c0.119,3.397-3.682,8.848-5.317,4.963
				c-2.507-5.127-7.17-36.851-7.295-46.524c-4.771-2.188-12.952-5.935-14.435-10.927c-3.258-10.979,7.132-17.396,13.211-22.674
				c-0.364-15.23,1.808-29.947,4.452-45.622c-37.128-1.279-61.792,18.298-60.966,30.8c0.233,3.537,22.175-3.073,20.08,6.415
				c-1.39,6.306-20.395,6.365-22.636-3.014c-3.562-21.19,39.085-40.803,64.116-39.036c0.309-1.921,0.633-5.545,1.246-6.642
				c2.83-5.107,9.074-4.599,10.083-1.228C119.306,55.342,117.187,61.005,116.793,62.957 M115.388,67.947
				c-2.814,12.117-5.987,27.085-6.844,39.691C114.392,99.312,141.329,72.404,115.388,67.947 M103.496,141.314
				c-0.621-8.75-0.096-16.833-0.474-22.225C94.237,123.37,91.857,137.932,103.496,141.314"/>
			<path fill="#757577" d="M161.098,91.775c-3.846,2.665-4.132-3.719-4.416-8.005c-0.175-2.648,2.973-3.778,4.924-2.617
				c2.33,1.384,2.427,4.729,1.792,7.079C163.06,89.479,162.188,91.022,161.098,91.775"/>
			<path fill="#757577" d="M161.781,149.366c-1.452,0.55-3.569-1.455-4.28-2.416c-1.727-2.341-2.607-5.367-3.347-8.138
				c-1.711-6.402-2.479-13.204-1.728-19.809c0.465-4.094,1.42-8.204,2.935-12.042c0.413-1.042,3.86-7.319,4.883-3.796
				c0.33,1.133-0.267,2.028-0.575,3.906c-1.226,7.474-2.827,14.584-0.9,22.115c1.12,4.371,3.058,8.469,4.214,12.814
				C163.562,144.18,164.66,148.273,161.781,149.366"/>
			<path fill="#757577" d="M237.932,117.818c1.387-9.777,17.889-8.914,17.862-1.522C255.77,123.719,240.993,123.875,237.932,117.818
				"/>
			<path fill="#7CBF42" d="M315.604,130.938c-6.493,5.158-13.539,6.896-18.967,6.737c-7.222-0.21-15.732-3.251-19.764-9.644
				c-1.148-1.825-1.934-4.429-1.908-6.59c-0.006,0.385,9.932,0.759,10.79,0.749c6.031-0.077,11.979-1.248,17.688-3.153
				c3.791-1.263,7.551-2.817,10.994-4.862c3.164-1.883,7.078-4.13,8.791-7.544c3.381-6.743,0.611-15.09-6.628-17.502
				c-1.997-0.666-4.169-0.98-6.265-1.143c-2.879-0.23-5.76,0.135-8.555,0.811c-5.533,1.332-11.057,3.569-15.77,6.785
				c-5.375,3.667-10.152,8.314-13.337,14.032c-2.479,4.453-4.401,9.789-3.375,14.937c1.188,5.996,4.562,11.613,9.271,15.51
				c4.904,4.062,11.277,5.942,17.471,6.918c2.032,0.321,4.088,0.506,6.146,0.547c4.595,0.086,9.402-0.471,13.878-1.533
				c6.579-1.562,15.738-5.633,13.739-13.991c-0.867-3.634-4.667-4.747-7.947-3.942C319.74,128.576,317.379,129.668,315.604,130.938
				 M292.389,100.454c3.104-1.943,6.898-4.196,10.672-4.324c3.892-0.136,7.228,2.623,7.372,6.471
				c0.322,8.27-10.482,11.113-16.935,12.444c-3.629,0.746-7.323,1.314-11.021,1.453c-5.069,0.184-6.449-0.272-6.449-0.272
				C279.721,110.22,285.755,104.621,292.389,100.454"/>
			<path fill="#757577" d="M230.795,140.761c-0.816-1.395-2.896-2.129-4.745-1.706c-1.017,0.232-1.954,0.168-2.323-0.338
				c-10.563-14.475,5.707-49.409-12.297-48.554c-11.318,0.537-20.223,12.415-25.344,25.46c-0.869-3.542-2.008-9.228-3.037-12.729
				c-0.426-1.448-1.7-3.152-3.122-2.387c-0.895,0.483-0.382,3.446-0.317,4.179c0.188,2.178,0.521,4.342,0.771,6.513
				c0.301,2.638,0.618,5.312,0.732,7.967c0.368,8.643-0.056,10.797,0.081,17.938c0.139,7.144,0.615,10.94,4.289,10.533
				c1.807-0.197,3.073-1.558,3.696-4.732c0.239-1.217,0.384-2.701,0.426-4.49c1.245-12.452,5.317-44.108,17.595-40.278
				c12.31,3.842,1.704,27.315,14.907,45.224c1.055,1.43,2.485,2.314,3.322,2.854C228.288,148.052,233.693,145.548,230.795,140.761"
				/>
		</g>
	</g>
</g>
</svg>
